<svg width="284" height="36" viewBox="0 0 284 36" fill="none" xmlns="http://www.w3.org/2000/svg">
<path d="M30.3571 0H3.64286C1.63096 0 0 1.567 0 3.5V31.5C0 33.433 1.63096 35 3.64286 35H30.3571C32.369 35 34 33.433 34 31.5V3.5C34 1.567 32.369 0 30.3571 0Z" fill="#E50914"/>
<path d="M20.4257 26.6029C21.1447 26.6029 21.7087 26.2629 22.1176 25.5837C22.5266 24.9037 22.7314 23.9487 22.7314 22.7171C22.7314 21.4855 22.5266 20.5297 22.1176 19.8498C21.7087 19.1706 21.1447 18.8306 20.4257 18.8306C19.7066 18.8306 19.1426 19.1706 18.733 19.8498C18.3241 20.5297 18.12 21.4855 18.12 22.7171C18.12 23.9487 18.3241 24.9037 18.733 25.5837C19.1426 26.2629 19.7066 26.6029 20.4257 26.6029ZM20.4257 28.885C19.4131 28.885 18.5275 28.6327 17.768 28.1288C17.0093 27.6249 16.423 26.9115 16.0111 25.9878C15.5993 25.0641 15.3931 23.9743 15.3931 22.7171C15.3931 21.4705 15.5993 20.3829 16.0111 19.4542C16.423 18.5255 17.0093 17.8092 17.768 17.3046C18.5275 16.8007 19.4131 16.5484 20.4257 16.5484C21.4375 16.5484 22.3239 16.8007 23.0834 17.3046C23.8428 17.8092 24.4277 18.5255 24.8402 19.4542C25.2513 20.3829 25.4583 21.4705 25.4583 22.7171C25.4583 23.9743 25.2513 25.0641 24.8402 25.9878C24.4277 26.9115 23.8428 27.6249 23.0834 28.1288C22.3239 28.6327 21.4375 28.885 20.4257 28.885Z" fill="white"/>
<path d="M10.7668 28.6913V19.9982L8.35577 20.614V17.912L13.4483 16.627V28.6913H10.7668Z" fill="white"/>
<path d="M24.3329 11.3071H25.2676C25.7291 11.3071 26.0638 11.218 26.2715 11.0391C26.4792 10.8609 26.583 10.6079 26.583 10.2808C26.583 9.96148 26.4792 9.71487 26.2715 9.53954C26.0638 9.36492 25.7291 9.27726 25.2676 9.27726H24.3329V11.3071ZM22.1404 15.401V7.46408H25.6137C26.2679 7.46408 26.8326 7.58168 27.31 7.81759C27.7867 8.05351 28.156 8.38421 28.4178 8.80971C28.6789 9.23592 28.8102 9.72628 28.8102 10.2808C28.8102 10.851 28.6789 11.3492 28.4178 11.7747C28.156 12.2002 27.7867 12.5316 27.31 12.7668C26.8326 13.0027 26.2679 13.1203 25.6137 13.1203H24.3329V15.401H22.1404Z" fill="white"/>
<path d="M17.0858 13.6791C17.4782 13.6791 17.8222 13.5865 18.1186 13.3997C18.415 13.2137 18.6458 12.9514 18.811 12.6129C18.9769 12.2743 19.0591 11.8816 19.0591 11.4326C19.0591 10.9843 18.9769 10.5909 18.811 10.2523C18.6458 9.91379 18.415 9.65222 18.1186 9.46549C17.8222 9.27946 17.4782 9.1861 17.0858 9.1861C16.6935 9.1861 16.3495 9.27946 16.0531 9.46549C15.7566 9.65222 15.5259 9.91379 15.3607 10.2523C15.1955 10.5909 15.1126 10.9843 15.1126 11.4326C15.1126 11.8816 15.1955 12.2743 15.3607 12.6129C15.5259 12.9514 15.7566 13.2137 16.0531 13.3997C16.3495 13.5865 16.6935 13.6791 17.0858 13.6791ZM17.0858 15.5949C16.4699 15.5949 15.9067 15.4909 15.3953 15.2813C14.884 15.0725 14.4397 14.7796 14.0625 14.4033C13.686 14.0269 13.3954 13.5865 13.1913 13.0804C12.9872 12.5751 12.8855 12.0256 12.8855 11.4326C12.8855 10.8396 12.9872 10.2908 13.1913 9.78479C13.3954 9.27946 13.686 8.83829 14.0625 8.46197C14.4397 8.08565 14.884 7.79343 15.3953 7.58389C15.9067 7.37506 16.4699 7.27029 17.0858 7.27029C17.7018 7.27029 18.265 7.37506 18.7764 7.58389C19.2877 7.79343 19.732 8.08565 20.1092 8.46197C20.4864 8.83829 20.7763 9.27946 20.9804 9.78479C21.1845 10.2908 21.2862 10.8396 21.2862 11.4326C21.2862 12.0256 21.1845 12.5751 20.9804 13.0804C20.7763 13.5865 20.4864 14.0269 20.1092 14.4033C19.732 14.7796 19.2877 15.0725 18.7764 15.2813C18.265 15.4909 17.7018 15.5949 17.0858 15.5949Z" fill="white"/>
<path d="M10.2776 15.4011L8.08514 15.9199V9.33435H5.65033V7.46415H12.7124V9.33435H10.2776V15.4011Z" fill="white"/>
<path d="M56.3906 26.5L59.0156 10.5H61.5156L58.8906 26.5H56.3906ZM49.2266 22.5312L49.6406 20.0312H62.1406L61.7266 22.5312H49.2266ZM50.7656 26.5L53.3906 10.5H55.8906L53.2656 26.5H50.7656ZM50.1406 16.9687L50.5625 14.4688H63.0625L62.6406 16.9687H50.1406ZM71.5449 10.5V26.5H68.1621V13.7109H68.0684L64.4043 16.0078V13.0078L68.3652 10.5H71.5449ZM80.4707 26.5V14.5H83.7988V26.5H80.4707ZM82.1426 12.9531C81.6478 12.9531 81.2233 12.7891 80.8691 12.4609C80.5202 12.1276 80.3457 11.7292 80.3457 11.2656C80.3457 10.8073 80.5202 10.4141 80.8691 10.0859C81.2233 9.7526 81.6478 9.58594 82.1426 9.58594C82.6374 9.58594 83.0592 9.7526 83.4082 10.0859C83.7624 10.4141 83.9395 10.8073 83.9395 11.2656C83.9395 11.7292 83.7624 12.1276 83.4082 12.4609C83.0592 12.7891 82.6374 12.9531 82.1426 12.9531ZM89.793 19.5625V26.5H86.4648V14.5H89.6367V16.6172H89.7773C90.043 15.9193 90.4883 15.3672 91.1133 14.9609C91.7383 14.5495 92.4961 14.3438 93.3867 14.3438C94.2201 14.3438 94.9466 14.526 95.5664 14.8906C96.1862 15.2552 96.668 15.776 97.0117 16.4531C97.3555 17.125 97.5273 17.9271 97.5273 18.8594V26.5H94.1992V19.4531C94.2044 18.7187 94.0169 18.1458 93.6367 17.7344C93.2565 17.3177 92.7331 17.1094 92.0664 17.1094C91.6185 17.1094 91.2227 17.2057 90.8789 17.3984C90.5404 17.5911 90.2747 17.8724 90.082 18.2422C89.8945 18.6068 89.7982 19.0469 89.793 19.5625ZM104.695 13.2891V10.5H117.836V13.2891H112.938V26.5H109.594V13.2891H104.695ZM122.891 10.5L126.758 22.6562H126.906L130.781 10.5H134.531L129.016 26.5H124.656L119.133 10.5H122.891ZM150.229 15.1016C150.166 14.4714 149.898 13.9818 149.424 13.6328C148.95 13.2839 148.307 13.1094 147.494 13.1094C146.942 13.1094 146.476 13.1875 146.096 13.3437C145.715 13.4948 145.424 13.7057 145.221 13.9766C145.023 14.2474 144.924 14.5547 144.924 14.8984C144.913 15.1849 144.973 15.4349 145.104 15.6484C145.239 15.862 145.424 16.0469 145.658 16.2031C145.893 16.3542 146.163 16.487 146.471 16.6016C146.778 16.7109 147.106 16.8047 147.455 16.8828L148.893 17.2266C149.59 17.3828 150.231 17.5911 150.814 17.8516C151.398 18.112 151.903 18.4323 152.33 18.8125C152.757 19.1927 153.088 19.6406 153.322 20.1562C153.562 20.6719 153.684 21.263 153.689 21.9297C153.684 22.9089 153.434 23.7578 152.939 24.4766C152.45 25.1901 151.742 25.7448 150.814 26.1406C149.893 26.5312 148.781 26.7266 147.479 26.7266C146.187 26.7266 145.062 26.5286 144.104 26.1328C143.15 25.737 142.406 25.151 141.869 24.375C141.338 23.5937 141.059 22.6276 141.033 21.4766H144.307C144.343 22.013 144.497 22.4609 144.768 22.8203C145.044 23.1745 145.411 23.4427 145.869 23.625C146.333 23.8021 146.856 23.8906 147.439 23.8906C148.012 23.8906 148.51 23.8073 148.932 23.6406C149.359 23.474 149.689 23.2422 149.924 22.9453C150.158 22.6484 150.275 22.3073 150.275 21.9219C150.275 21.5625 150.169 21.2604 149.955 21.0156C149.747 20.7708 149.439 20.5625 149.033 20.3906C148.632 20.2187 148.14 20.0625 147.557 19.9219L145.814 19.4844C144.465 19.1562 143.4 18.6432 142.619 17.9453C141.838 17.2474 141.45 16.3073 141.455 15.125C141.45 14.1562 141.708 13.3099 142.229 12.5859C142.755 11.862 143.476 11.2969 144.393 10.8906C145.309 10.4844 146.351 10.2812 147.518 10.2812C148.705 10.2812 149.742 10.4844 150.627 10.8906C151.518 11.2969 152.21 11.862 152.705 12.5859C153.2 13.3099 153.455 14.1484 153.471 15.1016H150.229ZM159.23 19.5625V26.5H155.902V10.5H159.137V16.6172H159.277C159.548 15.9089 159.986 15.3542 160.59 14.9531C161.194 14.5469 161.952 14.3438 162.863 14.3438C163.697 14.3438 164.423 14.526 165.043 14.8906C165.668 15.25 166.152 15.7682 166.496 16.4453C166.845 17.1172 167.017 17.9219 167.012 18.8594V26.5H163.684V19.4531C163.689 18.7135 163.501 18.138 163.121 17.7266C162.746 17.3151 162.22 17.1094 161.543 17.1094C161.09 17.1094 160.689 17.2057 160.34 17.3984C159.996 17.5911 159.725 17.8724 159.527 18.2422C159.335 18.6068 159.236 19.0469 159.23 19.5625ZM175.053 26.7344C173.839 26.7344 172.79 26.4766 171.904 25.9609C171.024 25.4401 170.344 24.7161 169.865 23.7891C169.386 22.8568 169.146 21.776 169.146 20.5469C169.146 19.3073 169.386 18.224 169.865 17.2969C170.344 16.3646 171.024 15.6406 171.904 15.125C172.79 14.6042 173.839 14.3438 175.053 14.3438C176.266 14.3438 177.313 14.6042 178.193 15.125C179.079 15.6406 179.761 16.3646 180.24 17.2969C180.719 18.224 180.959 19.3073 180.959 20.5469C180.959 21.776 180.719 22.8568 180.24 23.7891C179.761 24.7161 179.079 25.4401 178.193 25.9609C177.313 26.4766 176.266 26.7344 175.053 26.7344ZM175.068 24.1562C175.62 24.1562 176.081 24 176.451 23.6875C176.821 23.3698 177.1 22.9375 177.287 22.3906C177.48 21.8437 177.576 21.2214 177.576 20.5234C177.576 19.8255 177.48 19.2031 177.287 18.6562C177.1 18.1094 176.821 17.6771 176.451 17.3594C176.081 17.0417 175.62 16.8828 175.068 16.8828C174.511 16.8828 174.042 17.0417 173.662 17.3594C173.287 17.6771 173.003 18.1094 172.811 18.6562C172.623 19.2031 172.529 19.8255 172.529 20.5234C172.529 21.2214 172.623 21.8437 172.811 22.3906C173.003 22.9375 173.287 23.3698 173.662 23.6875C174.042 24 174.511 24.1562 175.068 24.1562ZM185.189 26.5L181.924 14.5H185.291L187.15 22.5625H187.26L189.197 14.5H192.502L194.471 22.5156H194.572L196.4 14.5H199.76L196.502 26.5H192.979L190.916 18.9531H190.768L188.705 26.5H185.189ZM211.52 17.9219L208.473 18.1094C208.421 17.849 208.309 17.6146 208.137 17.4062C207.965 17.1927 207.738 17.0234 207.457 16.8984C207.181 16.7682 206.85 16.7031 206.465 16.7031C205.949 16.7031 205.514 16.8125 205.16 17.0312C204.806 17.2448 204.629 17.5312 204.629 17.8906C204.629 18.1771 204.743 18.4193 204.973 18.6172C205.202 18.8151 205.595 18.974 206.152 19.0937L208.324 19.5312C209.491 19.7708 210.361 20.1562 210.934 20.6875C211.507 21.2187 211.793 21.9167 211.793 22.7812C211.793 23.5677 211.561 24.2578 211.098 24.8516C210.639 25.4453 210.009 25.9089 209.207 26.2422C208.41 26.5703 207.491 26.7344 206.449 26.7344C204.861 26.7344 203.595 26.4036 202.652 25.7422C201.715 25.0755 201.165 24.1693 201.004 23.0234L204.277 22.8516C204.376 23.3359 204.616 23.7057 204.996 23.9609C205.376 24.2109 205.863 24.3359 206.457 24.3359C207.04 24.3359 207.509 24.224 207.863 24C208.223 23.7708 208.405 23.4766 208.41 23.1172C208.405 22.8151 208.277 22.5677 208.027 22.375C207.777 22.1771 207.392 22.026 206.871 21.9219L204.793 21.5078C203.621 21.2734 202.749 20.8672 202.176 20.2891C201.608 19.7109 201.324 18.974 201.324 18.0781C201.324 17.3073 201.533 16.6432 201.949 16.0859C202.371 15.5286 202.962 15.099 203.723 14.7969C204.488 14.4948 205.384 14.3438 206.41 14.3438C207.926 14.3438 209.118 14.6641 209.988 15.3047C210.863 15.9453 211.374 16.8177 211.52 17.9219ZM218.434 13.2891V10.5H231.574V13.2891H226.676V26.5H223.332V13.2891H218.434ZM237.357 26.7344C236.144 26.7344 235.094 26.4766 234.209 25.9609C233.329 25.4401 232.649 24.7161 232.17 23.7891C231.691 22.8568 231.451 21.776 231.451 20.5469C231.451 19.3073 231.691 18.224 232.17 17.2969C232.649 16.3646 233.329 15.6406 234.209 15.125C235.094 14.6042 236.144 14.3438 237.357 14.3438C238.571 14.3438 239.618 14.6042 240.498 15.125C241.383 15.6406 242.066 16.3646 242.545 17.2969C243.024 18.224 243.264 19.3073 243.264 20.5469C243.264 21.776 243.024 22.8568 242.545 23.7891C242.066 24.7161 241.383 25.4401 240.498 25.9609C239.618 26.4766 238.571 26.7344 237.357 26.7344ZM237.373 24.1562C237.925 24.1562 238.386 24 238.756 23.6875C239.126 23.3698 239.404 22.9375 239.592 22.3906C239.785 21.8437 239.881 21.2214 239.881 20.5234C239.881 19.8255 239.785 19.2031 239.592 18.6562C239.404 18.1094 239.126 17.6771 238.756 17.3594C238.386 17.0417 237.925 16.8828 237.373 16.8828C236.816 16.8828 236.347 17.0417 235.967 17.3594C235.592 17.6771 235.308 18.1094 235.115 18.6562C234.928 19.2031 234.834 19.8255 234.834 20.5234C234.834 21.2214 234.928 21.8437 235.115 22.3906C235.308 22.9375 235.592 23.3698 235.967 23.6875C236.347 24 236.816 24.1562 237.373 24.1562ZM249.85 26.6953C248.938 26.6953 248.113 26.4609 247.373 25.9922C246.639 25.5182 246.055 24.8229 245.623 23.9062C245.196 22.9844 244.982 21.8542 244.982 20.5156C244.982 19.1406 245.204 17.9974 245.646 17.0859C246.089 16.1693 246.678 15.4844 247.412 15.0313C248.152 14.5729 248.962 14.3438 249.842 14.3438C250.514 14.3438 251.074 14.4583 251.521 14.6875C251.975 14.9115 252.339 15.1927 252.615 15.5312C252.896 15.8646 253.11 16.1927 253.256 16.5156H253.357V10.5H256.678V26.5H253.396V24.5781H253.256C253.1 24.9115 252.878 25.2422 252.592 25.5703C252.311 25.8932 251.943 26.1615 251.49 26.375C251.042 26.5885 250.495 26.6953 249.85 26.6953ZM250.904 24.0469C251.441 24.0469 251.894 23.901 252.264 23.6094C252.639 23.3125 252.925 22.8984 253.123 22.3672C253.326 21.8359 253.428 21.2135 253.428 20.5C253.428 19.7865 253.329 19.1667 253.131 18.6406C252.933 18.1146 252.646 17.7083 252.271 17.4219C251.896 17.1354 251.441 16.9922 250.904 16.9922C250.357 16.9922 249.896 17.1406 249.521 17.4375C249.146 17.7344 248.863 18.1458 248.67 18.6719C248.477 19.1979 248.381 19.8073 248.381 20.5C248.381 21.1979 248.477 21.8151 248.67 22.3516C248.868 22.8828 249.152 23.2995 249.521 23.6016C249.896 23.8984 250.357 24.0469 250.904 24.0469ZM262.836 26.7266C262.07 26.7266 261.388 26.5938 260.789 26.3281C260.19 26.0573 259.716 25.6589 259.367 25.1328C259.023 24.6016 258.852 23.9401 258.852 23.1484C258.852 22.4818 258.974 21.9219 259.219 21.4687C259.464 21.0156 259.797 20.651 260.219 20.375C260.641 20.099 261.12 19.8906 261.656 19.75C262.198 19.6094 262.766 19.5104 263.359 19.4531C264.057 19.3802 264.62 19.3125 265.047 19.25C265.474 19.1823 265.784 19.0833 265.977 18.9531C266.169 18.8229 266.266 18.6302 266.266 18.375V18.3281C266.266 17.8333 266.109 17.4505 265.797 17.1797C265.49 16.9089 265.052 16.7734 264.484 16.7734C263.885 16.7734 263.409 16.9062 263.055 17.1719C262.701 17.4323 262.466 17.7604 262.352 18.1562L259.273 17.9062C259.43 17.1771 259.737 16.5469 260.195 16.0156C260.654 15.4792 261.245 15.0677 261.969 14.7812C262.698 14.4896 263.542 14.3438 264.5 14.3438C265.167 14.3438 265.805 14.4219 266.414 14.5781C267.029 14.7344 267.573 14.9766 268.047 15.3047C268.526 15.6328 268.904 16.0547 269.18 16.5703C269.456 17.0807 269.594 17.6927 269.594 18.4062V26.5H266.438V24.8359H266.344C266.151 25.2109 265.893 25.5417 265.57 25.8281C265.247 26.1094 264.859 26.3307 264.406 26.4922C263.953 26.6484 263.43 26.7266 262.836 26.7266ZM263.789 24.4297C264.279 24.4297 264.711 24.3333 265.086 24.1406C265.461 23.9427 265.755 23.6771 265.969 23.3438C266.182 23.0104 266.289 22.6328 266.289 22.2109V20.9375C266.185 21.0052 266.042 21.0677 265.859 21.125C265.682 21.1771 265.482 21.2266 265.258 21.2734C265.034 21.3151 264.81 21.3542 264.586 21.3906C264.362 21.4219 264.159 21.4505 263.977 21.4766C263.586 21.5339 263.245 21.625 262.953 21.75C262.661 21.875 262.435 22.0443 262.273 22.2578C262.112 22.4661 262.031 22.7266 262.031 23.0391C262.031 23.4922 262.195 23.8385 262.523 24.0781C262.857 24.3125 263.279 24.4297 263.789 24.4297ZM273.801 31C273.379 31 272.983 30.9661 272.613 30.8984C272.249 30.8359 271.947 30.7552 271.707 30.6562L272.457 28.1719C272.848 28.2917 273.199 28.3568 273.512 28.3672C273.829 28.3776 274.103 28.3047 274.332 28.1484C274.566 27.9922 274.757 27.7266 274.902 27.3516L275.098 26.8438L270.793 14.5H274.293L276.777 23.3125H276.902L279.41 14.5H282.934L278.27 27.7969C278.046 28.4427 277.741 29.0052 277.355 29.4844C276.975 29.9688 276.493 30.3411 275.91 30.6016C275.327 30.8672 274.624 31 273.801 31Z" fill="white"/>
</svg>
